<?xml version="1.0" encoding="iso-8859-1"?>
<!-- Generator: Adobe Illustrator 19.0.0, SVG Export Plug-In . SVG Version: 6.00 Build 0)  -->
<svg xmlns="http://www.w3.org/2000/svg" xmlns:xlink="http://www.w3.org/1999/xlink" version="1.1" id="Capa_1" x="0px" y="0px" viewBox="0 0 211.626 211.626" style="enable-background:new 0 0 211.626 211.626;" xml:space="preserve" width="512px" height="512px">
<g>
	<g>
		<path d="M26.101,179.2H8l8.921-29.742c0.137-0.452,0.177-0.932,0.118-1.403l-3.413-27.307c-0.232-1.869-1.939-3.191-3.809-2.963    c-1.87,0.232-3.197,1.939-2.963,3.809l3.323,26.592L0.144,181.632c-0.311,1.034-0.113,2.152,0.531,3.019    c0.643,0.865,1.659,1.376,2.737,1.376h22.688c1.886,0,3.413-1.529,3.413-3.413C29.514,180.729,27.985,179.2,26.101,179.2z" fill="#FFFFFF"/>
	</g>
</g>
<g>
	<g>
		<path d="M145.46,179.2H61.439c-1.884,0-3.413,1.529-3.413,3.413c0,1.884,1.529,3.413,3.413,3.413h84.021    c1.886,0,3.413-1.529,3.413-3.413C148.873,180.729,147.344,179.2,145.46,179.2z" fill="#FFFFFF"/>
	</g>
</g>
<g>
	<g>
		<path d="M185.481,143.959l-29.833-4.465c-1.86-0.292-3.601,1.005-3.881,2.871c-0.28,1.862,1.005,3.601,2.871,3.879l29.961,4.485    c0.089,0.014,0.179,0.024,0.27,0.031c7.689,0.532,19.93,7.173,19.93,14.039V179.2h-23.001c-1.884,0-3.413,1.529-3.413,3.413    c0,1.884,1.529,3.413,3.413,3.413h26.414c1.884,0,3.413-1.529,3.413-3.413v-17.816    C211.626,153.407,195.947,144.75,185.481,143.959z" fill="#FFFFFF"/>
	</g>
</g>
<g>
	<g>
		<path d="M44.372,162.133c-11.293,0-20.48,9.187-20.48,20.48s9.187,20.48,20.48,20.48s20.48-9.187,20.48-20.48    S55.665,162.133,44.372,162.133z M44.372,196.266c-7.528,0-13.653-6.125-13.653-13.653c0-7.528,6.125-13.653,13.653-13.653    c7.528,0,13.653,6.125,13.653,13.653C58.026,190.141,51.901,196.266,44.372,196.266z" fill="#FFFFFF"/>
	</g>
</g>
<g>
	<g>
		<path d="M163.839,162.133c-11.293,0-20.48,9.187-20.48,20.48s9.187,20.48,20.48,20.48s20.48-9.187,20.48-20.48    S175.132,162.133,163.839,162.133z M163.839,196.266c-7.528,0-13.653-6.125-13.653-13.653c0-7.528,6.125-13.653,13.653-13.653    s13.653,6.125,13.653,13.653C177.492,190.141,171.367,196.266,163.839,196.266z" fill="#FFFFFF"/>
	</g>
</g>
<g>
	<g>
		<path d="M155.847,132.258l-27.307-23.893c-0.7-0.613-1.625-0.908-2.548-0.831L9.939,117.773c-1.621,0.143-2.915,1.411-3.092,3.028    c-0.177,1.618,0.812,3.137,2.365,3.627l64.853,20.48c0.285,0.09,0.58,0.142,0.879,0.155l78.507,3.413    c0.049,0.002,0.099,0.003,0.148,0.003c0.877,0,1.724-0.338,2.36-0.949c0.672-0.643,1.053-1.533,1.053-2.464v-10.24    C157.012,133.841,156.587,132.906,155.847,132.258z M150.186,141.501l-74.494-3.238l-48.113-15.194l97.562-8.608l25.045,21.914    V141.501z" fill="#FFFFFF"/>
	</g>
</g>
<g>
	<g>
		<path d="M153.599,141.653c-1.884,0-3.413,1.529-3.413,3.413v23.893c0,1.884,1.529,3.413,3.413,3.413s3.413-1.529,3.413-3.413    v-23.893C157.012,143.182,155.483,141.653,153.599,141.653z" fill="#FFFFFF"/>
	</g>
</g>
<g>
	<g>
		<path d="M85.332,110.933c-1.884,0-3.413,1.529-3.413,3.413v68.267c0,1.884,1.529,3.413,3.413,3.413s3.413-1.529,3.413-3.413    v-68.267C88.746,112.462,87.217,110.933,85.332,110.933z" fill="#FFFFFF"/>
	</g>
</g>
<g>
	<g>
		<path d="M194.559,46.08H170.9l-10.619-35.121c-0.437-1.44-1.763-2.425-3.268-2.425h-13.653c-0.995,0-1.939,0.433-2.589,1.186    c-0.647,0.756-0.935,1.754-0.787,2.737l5.084,33.623h-29.974l-2.628-7.904c-0.464-1.394-1.77-2.336-3.239-2.336H95.572    c-1.097,0-2.126,0.524-2.768,1.415c-0.642,0.891-0.818,2.034-0.471,3.074l6.468,19.448l-6.467,19.355    c-0.348,1.043-0.172,2.188,0.468,3.077c0.642,0.889,1.672,1.418,2.77,1.418h13.653c1.468,0,2.772-0.939,3.238-2.331l2.642-7.909    h29.984l-5.106,33.621c-0.148,0.985,0.138,1.983,0.787,2.738c0.649,0.754,1.594,1.188,2.589,1.188h13.653    c1.504,0,2.83-0.983,3.267-2.422l10.668-35.125h23.612c7.528,0,13.653-6.125,13.653-13.653    C208.212,52.205,202.087,46.08,194.559,46.08z M194.559,66.56h-26.143c-1.504,0-2.83,0.983-3.267,2.422l-10.668,35.125h-7.151    l5.106-33.62c0.148-0.985-0.138-1.983-0.787-2.737c-0.649-0.754-1.594-1.188-2.589-1.188h-36.413    c-1.468,0-2.773,0.939-3.238,2.331l-2.642,7.909h-6.456l5.325-15.94c0.234-0.701,0.234-1.459,0.002-2.159l-5.333-16.036h6.46    l2.628,7.904c0.464,1.394,1.77,2.336,3.239,2.336h36.405c0.993,0,1.939-0.433,2.587-1.186c0.647-0.756,0.935-1.754,0.787-2.737    l-5.084-33.623h7.151l10.619,35.121c0.437,1.44,1.763,2.425,3.268,2.425h26.194c3.765,0,6.827,3.062,6.827,6.827    C201.386,63.498,198.324,66.56,194.559,66.56z" fill="#FFFFFF"/>
	</g>
</g>
<g>
	<g>
		<path d="M112.639,15.36H75.092c-1.884,0-3.413,1.529-3.413,3.413s1.529,3.413,3.413,3.413h37.547c1.884,0,3.413-1.529,3.413-3.413    S114.523,15.36,112.639,15.36z" fill="#FFFFFF"/>
	</g>
</g>
<g>
	<g>
		<path d="M68.266,35.84H23.892c-1.884,0-3.413,1.529-3.413,3.413s1.529,3.413,3.413,3.413h44.373c1.884,0,3.413-1.529,3.413-3.413    S70.15,35.84,68.266,35.84z" fill="#FFFFFF"/>
	</g>
</g>
<g>
	<g>
		<path d="M81.919,56.32H68.266c-1.884,0-3.413,1.529-3.413,3.413s1.529,3.413,3.413,3.413h13.653c1.884,0,3.413-1.529,3.413-3.413    S83.803,56.32,81.919,56.32z" fill="#FFFFFF"/>
	</g>
</g>
<g>
	<g>
		<path d="M54.612,56.32H27.306c-1.884,0-3.413,1.529-3.413,3.413s1.529,3.413,3.413,3.413h27.307c1.884,0,3.413-1.529,3.413-3.413    S56.497,56.32,54.612,56.32z" fill="#FFFFFF"/>
	</g>
</g>
<g>
	<g>
		<path d="M71.679,76.8h-10.24c-1.884,0-3.413,1.529-3.413,3.413s1.529,3.413,3.413,3.413h10.24c1.884,0,3.413-1.529,3.413-3.413    S73.563,76.8,71.679,76.8z" fill="#FFFFFF"/>
	</g>
</g>
<g>
	<g>
		<path d="M119.466,93.866h-13.653c-1.884,0-3.413,1.529-3.413,3.413s1.529,3.413,3.413,3.413h13.653    c1.884,0,3.413-1.529,3.413-3.413S121.35,93.866,119.466,93.866z" fill="#FFFFFF"/>
	</g>
</g>
<g>
</g>
<g>
</g>
<g>
</g>
<g>
</g>
<g>
</g>
<g>
</g>
<g>
</g>
<g>
</g>
<g>
</g>
<g>
</g>
<g>
</g>
<g>
</g>
<g>
</g>
<g>
</g>
<g>
</g>
</svg>
